<?xml version="1.0" encoding="utf-8"?>
<!-- Generator: Adobe Illustrator 16.0.0, SVG Export Plug-In . SVG Version: 6.00 Build 0)  -->
<!DOCTYPE svg PUBLIC "-//W3C//DTD SVG 1.1//EN" "http://www.w3.org/Graphics/SVG/1.1/DTD/svg11.dtd">
<svg version="1.1" id="Layer_1" xmlns="http://www.w3.org/2000/svg" xmlns:xlink="http://www.w3.org/1999/xlink" x="0px" y="0px"
	 width="155.324px" height="152.934px" viewBox="0 0 155.324 152.934" enable-background="new 0 0 155.324 152.934"
	 xml:space="preserve">
<g>
	<path fill-rule="evenodd" clip-rule="evenodd" fill="#335866" d="M31.077,85.043c6.607-0.608,12.743,0.186,18.656-0.489
		c-2.874-7.037-6.059-13.62-8.225-20.522c-1.72-5.48-2.972-11.342-3.042-17.052c-0.113-9.179,3.02-17.647,8.939-24.813
		c7.54-9.126,17.657-14.102,29.182-14.043c20.279,0.104,36.183,13.777,38.832,33.703c0.939,7.07-0.023,13.848-1.975,20.544
		c-1.113,3.814-2.576,7.538-4.066,11.229c-1.426,3.536-3.092,6.977-4.861,10.928c1.545,0.1,2.93,0.25,4.314,0.265
		c3.332,0.036,6.666-0.072,9.994,0.044c1.611,0.057,3.209,0.486,5.049,0.785c7.148,18.593,14.244,37.007,21.271,55.447
		c0.326,0.859,0.041,1.952,0.041,2.927c-1.791,1.562-3.885,0.935-5.799,0.938c-24.826,0.049-49.65,0.035-74.475,0.035
		c-16.661,0-33.321,0.005-49.982-0.015c-1.781-0.002-3.562-0.153-5.929-0.263c0.25-1.892,0.172-3.389,0.66-4.671
		c5.072-13.345,10.239-26.653,15.374-39.975c1.373-3.563,2.702-7.143,4.099-10.696C29.673,87.979,30.343,86.66,31.077,85.043z
		 M14.84,139.874c4.604,0.996,120.134,0.997,124.662,0.019c-6.256-16.772-12.668-33.398-19.127-49.893c-6.723,0-12.852,0-19.125,0
		c-7.461,10.352-14.137,21.285-24.018,30.11c-1.47-1.359-2.753-2.38-3.839-3.579c-6.249-6.906-11.946-14.238-16.972-22.091
		c-1.05-1.641-2.331-3.132-3.249-4.353c-6.722,0-12.841,0-19.191,0C27.571,106.757,21.223,123.273,14.84,139.874z M77.127,63.664
		C85.283,64.037,94.169,56.826,94,47c-0.164-9.413-6.494-16.693-16.191-16.874c-10.668-0.198-17.04,7.128-17.373,16.692
		C60.098,56.549,68.969,63.978,77.127,63.664z"/>
</g>
</svg>
