<?xml version="1.0" encoding="utf-8"?>
<!-- Generator: Adobe Illustrator 16.0.0, SVG Export Plug-In . SVG Version: 6.00 Build 0)  -->
<!DOCTYPE svg PUBLIC "-//W3C//DTD SVG 1.1//EN" "http://www.w3.org/Graphics/SVG/1.1/DTD/svg11.dtd">
<svg version="1.1" id="Layer_1" xmlns="http://www.w3.org/2000/svg" xmlns:xlink="http://www.w3.org/1999/xlink" x="0px" y="0px"
	 width="155.324px" height="152.934px" viewBox="0 0 155.324 152.934" enable-background="new 0 0 155.324 152.934"
	 xml:space="preserve">
<g id="o22z1q_1_">
	<g>
		<path fill-rule="evenodd" clip-rule="evenodd" fill="#335866" d="M86.744,54.826c6.509,0,12.869,0,19.404,0
			c-0.744,7.253-1.473,14.363-2.218,21.629c-5.729,0-11.375,0-17.157,0c0,20.487,0,40.811,0,61.25c-8.544,0-16.949,0-25.521,0
			c0-20.337,0-40.663,0-61.191c-4.109,0-8.061,0-12.077,0c0-7.305,0-14.408,0-21.659c3.993,0,7.907,0,12.048,0
			c0-0.685-0.005-1.224,0.001-1.763c0.049-5.063-0.173-10.146,0.211-15.184c0.621-8.158,3.842-15.03,11.171-19.399
			c3.358-2.002,7.069-3.125,10.951-3.202c7.35-0.146,14.704-0.042,22.166-0.042c0,6.885,0,13.796,0,20.928c-0.438,0-0.93,0-1.421,0
			c-3.985,0-7.972-0.013-11.957,0.005c-3.333,0.015-5.445,1.785-5.562,5.051C86.624,45.691,86.744,50.144,86.744,54.826z"/>
	</g>
</g>
</svg>
