<?xml version="1.0" encoding="utf-8"?>
<!-- Generator: Adobe Illustrator 16.0.0, SVG Export Plug-In . SVG Version: 6.00 Build 0)  -->
<!DOCTYPE svg PUBLIC "-//W3C//DTD SVG 1.1//EN" "http://www.w3.org/Graphics/SVG/1.1/DTD/svg11.dtd">
<svg version="1.1" id="Layer_1" xmlns="http://www.w3.org/2000/svg" xmlns:xlink="http://www.w3.org/1999/xlink" x="0px" y="0px"
	 width="155.324px" height="152.934px" viewBox="0 0 155.324 152.934" enable-background="new 0 0 155.324 152.934"
	 xml:space="preserve">
<g>
	<path fill-rule="evenodd" clip-rule="evenodd" fill="#335866" d="M56.467,49.769c-1.353,1.443-2.188,2.314-3,3.207
		c-0.708,0.777-1.389,1.578-2.013,2.29c4.666,19.375,28.648,43.16,47.491,47.431c1.554-1.431,3.214-2.96,5.247-4.833
		c10.438,9.47,19.978,19.726,29.967,29.665c-4.689,7.146-11.34,10.242-19.433,10.951c-16.285,1.428-30.728-3.469-44.264-12.188
		c-11.063-7.129-20.797-15.754-29.536-25.474c-6.674-7.424-12.758-15.365-17.312-24.348c-4.205-8.296-6.878-16.952-8.014-26.283
		c-0.778-6.384,0.256-12.252,1.725-18.263c0.821-3.362,2.419-6.131,5.076-8.375c1.263-1.065,2.268-2.435,3.679-3.984
		C36.638,29.434,46.1,39.764,56.467,49.769z"/>
	<path fill-rule="evenodd" clip-rule="evenodd" fill="#335866" d="M138.25,70.84c-1.846-0.087-2.831-0.133-4.034-0.189
		c-3.239-12.55-9.084-23.507-18.165-32.638c-9.09-9.14-20.166-14.797-32.479-18.221c-0.147-0.857-0.324-1.431-0.32-2.004
		c0.002-0.417,0.24-0.832,0.428-1.413c0.575-0.1,1.208-0.41,1.712-0.267c3.483,0.99,7.088,1.739,10.384,3.181
		c21.098,9.228,35.103,24.854,41.732,46.973C137.878,67.506,137.934,68.844,138.25,70.84z"/>
	<path fill-rule="evenodd" clip-rule="evenodd" fill="#335866" d="M29.812,16.782c2.694-2.813,2.694-2.813,8.237-2.331
		c0.84,0.788,1.979,1.773,3.023,2.851c6.333,6.537,12.663,13.078,18.959,19.65c3.552,3.708,3.334,6.116-0.549,9.655
		C49.664,36.737,39.853,26.875,29.812,16.782z"/>
	<path fill-rule="evenodd" clip-rule="evenodd" fill="#335866" d="M107.272,94.935c0.246-0.355,0.449-0.781,0.77-1.084
		c0.659-0.621,1.381-1.176,2.204-1.865c1.418,0,2.906,0,4.755,0c8.146,7.85,16.416,15.818,24.514,23.622
		c0.811,3.615,0.869,6.657-2.138,8.933C134.497,122.906,111.17,99.947,107.272,94.935z"/>
	<path fill-rule="evenodd" clip-rule="evenodd" fill="#335866" d="M126.986,72.195c-0.668,0.733-1.169,1.282-1.709,1.875
		c-0.493-0.089-0.923-0.135-1.334-0.248c-1.703-0.468-1.614-2.11-1.975-3.323c-1.384-4.665-3.317-9.045-5.783-13.253
		c-5.619-9.585-13.532-16.673-23.367-21.594c-3.756-1.88-7.852-3.08-12.314-4.79c0.128-0.969,0.285-2.154,0.508-3.832
		c11.735,2.706,21.417,7.862,29.561,15.922C118.742,51.04,124.064,60.736,126.986,72.195z"/>
	<path fill-rule="evenodd" clip-rule="evenodd" fill="#335866" d="M76.92,40.435c1.899-2.035,3.415-1.708,4.876-1.27
		c9.525,2.866,17.451,8.064,23.835,15.781c4.133,4.994,7.065,10.517,9.064,16.621c0.577,1.765,1.137,3.463-0.301,5.056
		c-2.339,0.554-2.95-1.112-3.574-2.649c-1.019-2.518-1.771-5.162-2.966-7.59c-5.416-10.998-14.049-18.406-25.588-22.463
		c-0.998-0.35-2.115-0.505-2.974-1.063C78.401,42.275,77.754,41.314,76.92,40.435z"/>
</g>
</svg>
